<?xml version="1.0" encoding="utf-8"?>
<!-- Generator: Adobe Illustrator 24.2.0, SVG Export Plug-In . SVG Version: 6.00 Build 0)  -->
<svg version="1.1" id="Layer_1" xmlns="http://www.w3.org/2000/svg" xmlns:xlink="http://www.w3.org/1999/xlink" x="0px" y="0px"
	 viewBox="0 0 1389 410" enable-background="new 0 0 1389 410" xml:space="preserve">
<g>
	<path fill="#C7383E" d="M1149.72,1.02c13.82-0.03,27.64-0.04,41.46,0.01c2.01,8.51,4.25,16.96,6.19,25.49
		c-7.94-0.1-15.87,0.04-23.8-0.08c-1.14-3.92-2.3-7.83-3.47-11.73c-1.89,3.77-2.75,7.93-4.31,11.83
		c-7.29-0.11-14.59-0.05-21.88-0.03C1145.73,17.98,1147.83,9.53,1149.72,1.02z"/>
	<g>
		<path fill="#C7383E" d="M0.5,13.9c145.65-0.01,291.29-0.01,436.94,0c0.01,131.18-0.02,262.36,0.01,393.53
			c-130.7,0.04-261.4,0.02-392.1,0.01c0-118.48-0.01-236.97,0-355.45c32.93,2.12,66.03,4.67,98.22,12.29
			c25.98,6.07,51.25,15.68,74.03,29.67c18.55-11.18,38.69-19.6,59.49-25.56c37.85-10.97,77.37-14.12,116.55-16.26
			c0.02,103.99,0.01,207.97,0,311.96c-100.9-0.09-201.81,0.21-302.71-0.15c0.22-33.69-0.1-67.38,0.16-101.06
			c6.29-0.43,12.62-0.67,18.86-1.69c11.4-2.18,20.69-10.07,27.79-18.88c11.66-14.51,19.73-31.45,30.47-46.6
			c8.7-12.76,19.94-24.11,34-30.87c-0.21-14.51-0.06-29.02-0.08-43.53C164.67,97.93,120.22,89.44,76.8,85.97
			c0.1,96.65,0.05,193.3,0.03,289.94c109.7,0.08,219.39,0.01,329.09,0.04c0.06-110.15-0.08-220.3,0.07-330.45
			c-18.48-0.2-36.98-0.03-55.46-0.09c-106.16,0.08-212.32-0.15-318.47,0.12c0.23,113.51-0.01,227.02,0.12,340.53
			c0.37,7.98,0.18,15.96,0.19,23.94H0.5V13.9z M340.54,87.91c-37.2,4.42-74.71,13.41-106.93,33.18c0.02,11.3,0.01,22.59,0.01,33.88
			c16.01-2.78,33.49-3.02,48.23,4.76c10.7,5.5,18.52,16.27,20,28.27c1.07,9.4,0.24,19.48-4.55,27.83
			c-3.76,6.58-10.33,11.05-17.32,13.63c-13.48,5.03-28.1,5.02-42,8.2c-3.37,1-7.58,1.92-9.25,5.37c-1.36,5.15-1.83,10.8-0.19,15.94
			c1.22,3.96,5.1,6.26,8.94,7.12c7.09,1.64,14.53,0.94,21.56-0.67c10.67-2.86,19.52-9.98,27.56-17.26
			c13.71-12.66,25.67-27.06,39.25-39.84c10.79-10.24,22.68-19.59,36.28-25.81c0.08-32.2-0.11-64.41,0.09-96.62
			C354.96,86.12,347.75,87.13,340.54,87.91z M215.88,193.42c-9.03,3.99-15.62,11.75-21.29,19.57
			c-9.78,13.81-17.51,28.95-27.33,42.73c-10.88,15.65-25.65,29.92-44.59,34.78c-0.3,14.05-0.21,28.12-0.04,42.17
			c79.83-0.21,159.67-0.03,239.5-0.09c0.04-37.87-0.05-75.75,0.05-113.63c-22.25,16.09-38.28,38.97-59.11,56.67
			c-10.86,9.34-23.37,17.28-37.46,20.54c-10.48,2.32-21.43,3.16-32.05,1.27c-11.83-2.04-23.2-8.36-29.9-18.51
			c-7.62-11.25-8.83-25.65-6.55-38.75c1.39-9.55,5.69-19.1,13.67-24.89c10.44-7.68,23.76-9.22,36.21-11.05
			c7.01-1.16,14.49-1.39,20.84-4.9c4.41-2.23,3.89-9.28-0.24-11.52c-4.56-2.65-9.99-3.15-15.16-3.22
			C239.77,184.7,227.36,188.26,215.88,193.42z"/>
	</g>
	<path fill="#C7383E" d="M1142.01,34.38c18.81,0.01,37.62-0.03,56.42,0.01c1.51-0.35,1.47,1.52,1.83,2.43
		c12.1,50.69,24.35,101.33,36.51,152c2.43,9.77,4.34,19.72,7.98,29.14c4.01,10.89,10.38,20.74,17.69,29.7
		c-17.3-0.13-34.6,0.08-51.9-0.1c-1.73-3.93-1.91-8.42-3.06-12.56c-10.8-50.15-21.6-100.3-32.4-150.45
		c-1.73-7.21-2.77-14.6-4.98-21.69c-12.47,61.62-24.98,123.23-37.69,184.8c-16.68-0.04-33.35-0.11-50.02,0.04
		c8.5-5.91,12.64-15.93,14.96-25.66C1112.26,159.49,1127.13,96.93,1142.01,34.38z"/>
	<path fill="#C7383E" d="M1238.79,34.37c14.14,0.01,28.29,0.02,42.44-0.01c13.31,28.39,26.56,56.81,39.85,85.21
		c7.87,16.51,15.25,33.26,23.42,49.62c0.3-37.07,0.04-74.14,0.12-111.21c0.27-8.61-3.03-16.89-8.23-23.63
		c17.7,0.33,35.4-0.5,53.11-0.14v0.37c-6.2,6.42-8.75,15.65-8.56,24.43c0.06,62.84-0.09,125.69,0.03,188.54
		c-14.65,0.15-29.3,0.06-43.95,0.04c-12.93-28.1-25.99-56.14-38.97-84.22c-8.01-16.85-15.37-34.02-23.77-50.67
		c-0.25,44.71,0.2,89.43,0.14,134.15c-7.1-7.84-13.22-16.64-17.51-26.33c-4.86-10.73-7.2-22.34-10.4-33.62
		c-2.44-9.44-5.29-18.79-7.49-28.29c-0.45-11.2-0.05-22.44-0.19-33.65C1238.81,94.76,1238.78,64.57,1238.79,34.37z"/>
	<g>
		<path fill="#C7383E" d="M492.27,34.78c36.74-0.19,73.48-0.01,110.23-0.11c12.34-0.46,24.49,5.57,32.37,14.93
			c5.39,6.5,8.39,14.92,8.33,23.36c0.01,45.01,0.03,90.01,0.07,135.01c0,10.65-4.3,21.38-12.17,28.65
			c-7.17,6.62-16.8,10.83-26.63,10.67c-37.39,0.08-74.77,0.25-112.15,0.34c5.08-7.17,8.09-15.76,7.99-24.6
			c0.02-54.37,0.09-108.74,0.04-163.11C500.44,50.92,497.66,42,492.27,34.78z M537.11,71.08c-0.07,46.71-0.02,93.42-0.03,140.13
			c18.14,0,36.28,0.03,54.42-0.04c8.06,0,15.33-7.1,15.34-15.2c0.09-36.63-0.06-73.27,0.01-109.9c-0.16-8.78-8.76-15.68-17.31-14.95
			C572.06,71.13,554.58,71.14,537.11,71.08z"/>
	</g>
	<path fill="#C7383E" d="M638.14,34.76c17.71-0.05,35.43-0.09,53.14,0.17c-0.16,54.03-0.1,108.05-0.18,162.08
		c-0.49,7.39,5.92,14.37,13.39,14.2c14.64,0.01,29.29,0.07,43.93-0.03c7.24-0.12,13.02-7.05,12.89-14.08
		c-0.1-51.06-0.21-102.13-0.33-153.19c8.59,5.86,13.14,15.7,18.07,24.52c5.65,11.91,10.47,24.2,15.84,36.25
		c0.84,2.03,1.99,4.05,1.94,6.33c0,28.98,0,57.97,0,86.95c-0.16,8.97,0.93,18.35-2.67,26.84c-5.26,13.89-19.98,22.79-34.63,22.44
		c-23.01-0.04-46.03-0.11-69.04-0.13c-9.41,0-18.59-4.18-25.28-10.69c-7.03-6.85-10.76-16.69-10.74-26.43
		c-0.08-45.99-0.19-91.97-0.27-137.96c0.08-7.91-1.41-15.93-5.06-23C646.5,43.55,642.33,39.08,638.14,34.76z"/>
	<path fill="#C7383E" d="M763.27,34.93c16.79-0.3,33.6-0.06,50.4-0.12c10.15,25.65,20.23,51.34,30.36,76.99
		c0.2-0.02,0.59-0.08,0.79-0.1c10.27-25.61,20.11-51.4,30.48-76.96c16.84,0.22,33.69-0.14,50.53,0.17
		c-2.69,2.15-5.77,3.77-8.28,6.15c-7.07,6.31-11.5,14.89-15.4,23.38c-6.9,14.04-11.74,28.95-17.56,43.45
		c-7.18,18.84-14.59,37.6-21.63,56.48c-0.5,19.86-0.09,39.78-0.22,59.66c-0.2,8.36,2.69,16.51,7.62,23.21
		c-17.31-0.05-34.62,0.09-51.92-0.07c2.63-3.73,5.03-7.71,6.21-12.16c1.84-6.17,1.42-12.67,1.45-19.02
		c0.01-16.34-0.02-32.69,0.02-49.03c0-1.38-0.16-2.76-0.69-4.04c-7.32-18.96-14.6-37.94-21.9-56.91
		c-7.38-18.83-13.8-38.21-24.26-55.62C775.41,43.89,769.76,38.71,763.27,34.93z"/>
	<path fill="#C7383E" d="M963.22,34.73c50.02-0.02,100.05-0.04,150.07,0.01c-0.02,17.12-0.06,34.23,0.02,51.34
		c-6.69-9.5-18.28-15.13-29.85-14.97c-9.04,0.01-18.08,0.01-27.12,0.01c0,52.61-0.02,105.21-0.11,157.82
		c-0.46,6.88,3.35,13.02,6.89,18.6c-16.94,0.22-33.88-0.03-50.82,0.12c4.26-6.45,7.99-13.63,7.91-21.58
		c0.04-51.64-0.15-103.28-0.01-154.92c-9.57-0.07-19.13-0.05-28.69-0.02c-11.01,0.2-21.5,5.88-28.23,14.5
		C963.14,68.67,963.26,51.7,963.22,34.73z"/>
</g>
<g>
	<g>
		<path fill="#A2A4A7" d="M1089.38,287.77c8.28-6.89,19.81-8.39,30.18-6.8c5.65,0.83,10.81,3.62,15.11,7.31
			c-2.32,4.78-4.91,9.44-7.79,13.91c-1.49-3.45-3.09-7.06-6.14-9.42c-7.19-5.66-19.01-4.4-24.47,3.11
			c-5.73,7.58-3.3,19.63,4.82,24.55c10.37,6.19,22.63,9.85,30.97,19.03c9.99,11.02,7.81,29.51-2.44,39.63
			c-9.49,9.44-23.06,13.24-36.01,14.71c-17.02,1.63-35.51,0.15-49.83-10.08c-16.61-11.58-25.79-30.23-38.33-45.53
			c-0.38,17.14-0.01,34.29-0.19,51.43c-4.94-0.04-9.88-0.12-14.81,0.07c-0.65-11.55-0.1-23.14-0.28-34.7
			c0.03-24.14-0.06-48.29,0.05-72.44c10.08-0.09,20.16-0.08,30.24-0.01c8.41,0.26,17.53,1.57,24.13,7.26
			c7.55,6.62,8.3,18.25,4.91,27.17c-4.26,10.75-15.41,16.71-26.17,19.09c2.38,4.21,5.33,8.06,7.98,12.12
			c4.76,6.83,8.95,14.22,15.18,19.88c13.59,12.6,32.61,19.24,51.09,17.71c8.31-0.78,17.08-3.6,22.57-10.24
			c7.74-9.42,4.7-25.21-5.65-31.44c-8.28-4.6-17.65-7.09-25.54-12.41c-7.71-5.51-10.31-15.68-9.33-24.72
			C1080.17,299.61,1083.57,292.4,1089.38,287.77z M1005.33,290.77c0.13,12.96-0.43,25.97,0.28,38.91c8.2,0.5,17.24-0.4,23.76-5.89
			c4.7-3.74,7.13-9.82,6.88-15.76c0.11-5.6-2.02-11.71-7.09-14.63C1021.96,289.19,1013.25,290.67,1005.33,290.77z"/>
	</g>
	<path fill="#A2A4A7" d="M501.16,282.58c5.02-0.44,10.07-0.05,15.1-0.27c0.24,16.23,0.04,32.47,0.11,48.7
		c0.06,10.77-0.61,21.84,2.83,32.22c1.73,5.59,5.39,10.73,10.72,13.37c7.24,3.64,15.73,4.13,23.64,2.96
		c7.74-1.16,14.71-6.21,18.12-13.26c4.71-9.35,5.11-20.07,5.01-30.32c0.04-17.88-0.1-35.77,0.07-53.65
		c3.47,0.06,6.95,0.07,10.43,0.03c0.05,20.55,0.01,41.11,0.02,61.67c-0.01,11.46-2.56,23.58-10.28,32.42
		c-6.79,8.03-17.08,12.45-27.43,13.26c-12.15,1-25.27-0.97-35.05-8.75c-5.75-4.36-9.33-11.03-11.06-17.94
		c-2.78-10.46-2.05-21.36-2.15-32.06C501.19,314.83,501.35,298.7,501.16,282.58z"/>
	<path fill="#A2A4A7" d="M690.41,282.3c3.32,0.45,7.19-0.68,10.2,0.6c0.26,27.05,0.03,54.12,0.11,81.17
		c-0.15,8.53,0.31,17.08-0.25,25.6c-2.54-0.08-5.08-0.1-7.61-0.05c-21.87-27.72-43.88-55.37-67.23-81.85
		c-0.17,27.23-0.02,54.47-0.08,81.71c-3.49,0.14-6.99,0.13-10.48,0.02c-0.08-35.69-0.07-71.38,0-107.06
		c3.8-0.07,7.6-0.06,11.41-0.04c14.18,17.01,28.2,34.16,42.32,51.22c7.19,8.44,13.86,17.35,21.39,25.49
		c-0.06-24.03,0.03-48.06-0.04-72.08C690.16,285.44,690.29,283.87,690.41,282.3z"/>
	<path fill="#A2A4A7" d="M735.72,282.36c4.94,0.02,9.88,0.08,14.82-0.06c0.61,14.87,0.09,29.78,0.27,44.66
		c0.02,20.82-0.05,41.64,0.03,62.46c-5.02,0.36-10.05,0.03-15.07,0.23C735.6,353.89,735.69,318.12,735.72,282.36z"/>
	<path fill="#A2A4A7" d="M774.36,282.25c5.3,0.04,10.6,0.03,15.91,0.02c10.92,28.64,21.73,57.33,32.58,86
		c4.68-10.6,8.28-21.67,12.51-32.46c6.82-17.81,13.29-35.77,20.28-53.51c4.23,0.04,8.45,0.02,12.69,0.05
		c-13.78,35.74-27.46,71.51-41.25,107.24c-3.08-0.05-6.17,0.16-9.23-0.08c-1-0.75-1.23-2.11-1.76-3.15
		c-12.58-31.37-25.33-62.67-37.98-94.02C776.77,289.01,775.22,285.75,774.36,282.25z"/>
	<path fill="#A2A4A7" d="M888.62,282.38c20.14,0.22,40.28,0.06,60.42,0.08c-0.28,3.18,0.66,6.69-0.43,9.69
		c-14.99,0.34-30.01,0.13-45,0.1c-0.29,11.65-0.11,23.31-0.1,34.97c15.1,0.02,30.2,0.13,45.31-0.06c0.29,3.07,0.28,6.16,0.15,9.25
		c-15.11,0.04-30.22,0.15-45.32-0.05c-0.33,13.8-0.24,27.62-0.05,41.42c14.99-0.04,29.99-0.22,44.98,0.06
		c1.2,3.66,0.08,7.88,0.49,11.75c-20.16,0.03-40.32-0.12-60.47,0.08c-0.61-20.19-0.09-40.42-0.26-60.63
		C888.52,313.49,887.97,297.91,888.62,282.38z"/>
	<path fill="#A2A4A7" d="M1164.55,282.29c4.92,0.15,9.84,0.12,14.76,0.03c0.19,35.78,0.17,71.57,0.01,107.35
		c-4.94-0.09-9.87-0.13-14.8,0.03c-0.53-26.55-0.08-53.13-0.23-79.69C1164.45,300.77,1163.96,291.51,1164.55,282.29z"/>
	<path fill="#A2A4A7" d="M1203.67,282.32c25.12,0.28,50.24-0.25,75.35,0.27c-0.03,3.22-0.03,6.45-0.02,9.69
		c-9.84,0.08-19.67,0.09-29.51-0.03c-0.45,32.45,0.02,64.93-0.23,97.4c-4.95-0.43-10.23,0.67-14.98-0.5
		c-0.24-32.28-0.01-64.57-0.11-96.85c-10.21-0.05-20.41,0.1-30.61-0.1C1203.54,288.91,1203.57,285.61,1203.67,282.32z"/>
	<path fill="#A2A4A7" d="M1296.78,282.4c5.55,0.12,11.11-0.07,16.67,0.06c1.33-0.16,1.71,1.39,2.37,2.24
		c6.9,12.43,13.89,24.83,20.84,37.25c1.83,3.16,3.37,6.52,5.63,9.43c9.32-16.28,18.56-32.61,27.91-48.88
		c3.76-0.01,7.52-0.03,11.29-0.06c-3.34,6.96-7.65,13.41-11.36,20.17c-6.5,11.17-12.93,22.38-19.43,33.55
		c-1.17,2.14-3.01,4.18-2.77,6.78c0.07,15.5-0.08,30.99,0.09,46.48c-5.07,0.39-10.14,0.1-15.2,0.19c0.03-14.53-0.02-29.07,0.03-43.6
		c0.13-1.78-0.59-3.41-1.47-4.89C1319.78,321.59,1308.36,301.95,1296.78,282.4z"/>
</g>
</svg>
