<svg xmlns="http://www.w3.org/2000/svg" xmlns:v="https://svgstorm.com" viewBox="0 0 500 500" width="512" height="512">
<g fill="#1a71bd" fill-opacity="0.99" stroke="None">
<path d=" M 5.00 492.00 C 44.23 492.13 88.25 491.82 127.00 492.00 C 165.75 492.18 212.00 491.66 249.00 492.00 C 286.00 492.34 320.34 485.39 350.77 471.77 C 381.20 458.15 399.33 444.05 422.75 421.75 C 446.18 399.46 459.08 378.78 473.23 350.23 C 487.37 321.68 495.18 283.21 495.00 250.00 C 494.82 216.79 487.75 177.98 473.77 149.23 C 459.79 120.48 446.01 100.80 422.75 78.25 C 399.50 55.70 381.55 41.67 351.08 27.92 C 320.60 14.18 286.13 7.27 249.00 8.00 C 211.87 8.73 165.82 7.62 127.00 8.00 C 88.18 8.38 44.28 7.71 5.00 8.00 C 5.00 169.33 5.00 330.67 5.00 492.00 M 93.00 403.00 C 93.00 300.67 93.00 198.33 93.00 96.00 C 125.46 96.04 164.17 95.95 196.00 96.00 C 227.83 96.05 266.11 94.08 294.07 101.93 C 322.03 109.77 339.52 121.08 359.70 140.30 C 379.87 159.52 390.88 178.45 399.93 204.07 C 408.98 229.70 408.90 268.55 400.22 294.22 C 391.54 319.89 381.07 339.56 360.75 358.75 C 340.43 377.94 323.33 389.18 295.33 397.33 C 267.33 405.47 228.99 402.82 197.00 403.00 C 165.01 403.18 125.66 402.86 93.00 403.00 Z"/>
</g>
<g fill="#1a71bd" fill-opacity="0.99" stroke="None">
<path d=" M 113.00 383.00 C 148.80 384.13 194.16 381.49 229.00 383.00 C 263.84 384.51 297.43 380.11 323.92 361.92 C 350.41 343.73 364.18 326.44 376.23 298.23 C 388.28 270.02 389.15 229.42 376.77 201.23 C 364.40 173.04 350.26 156.68 324.23 137.77 C 298.20 118.86 263.65 115.62 229.00 117.00 C 194.35 118.38 148.66 115.96 113.00 117.00 C 113.00 205.67 113.00 294.33 113.00 383.00 M 202.00 294.00 C 202.00 264.33 202.00 234.67 202.00 205.00 C 227.54 206.47 263.30 198.95 282.75 217.25 C 302.20 235.55 303.17 262.89 283.75 281.75 C 264.33 300.61 227.71 292.37 202.00 294.00 Z"/>
</g>
</svg>